<mxfile host="app.diagrams.net" modified="2022-10-19T20:30:45.134Z" agent="5.0 (Macintosh; Intel Mac OS X 10_15_7) AppleWebKit/605.1.15 (KHTML, like Gecko) Version/15.5 Safari/605.1.15" etag="Jfh-Xj5rEHrHHhXLQLXT" version="20.4.2" type="github">
  <diagram name="Page-1" id="c4acf3e9-155e-7222-9cf6-157b1a14988f">
    <mxGraphModel dx="944" dy="572" grid="1" gridSize="10" guides="1" tooltips="1" connect="1" arrows="1" fold="1" page="1" pageScale="1" pageWidth="850" pageHeight="1100" background="none" math="0" shadow="0">
      <root>
        <mxCell id="0" />
        <mxCell id="1" parent="0" />
        <mxCell id="f0s5E0B-F8WZaxfZbD_Y-1" value="" style="whiteSpace=wrap;html=1;aspect=fixed;fillColor=#f5f5f5;fontColor=#333333;strokeColor=#666666;" parent="1" vertex="1">
          <mxGeometry x="180" y="40" width="450" height="450" as="geometry" />
        </mxCell>
        <mxCell id="ibvccmpmpEazySmpFsbX-1" value="Login&amp;nbsp;" style="ellipse;whiteSpace=wrap;html=1;" parent="1" vertex="1">
          <mxGeometry x="260" y="140" width="120" height="80" as="geometry" />
        </mxCell>
        <mxCell id="f0s5E0B-F8WZaxfZbD_Y-2" value="Returning User" style="shape=umlActor;verticalLabelPosition=bottom;verticalAlign=top;html=1;outlineConnect=0;" parent="1" vertex="1">
          <mxGeometry x="100" y="160" width="30" height="60" as="geometry" />
        </mxCell>
        <mxCell id="f0s5E0B-F8WZaxfZbD_Y-4" value="Create diary entry" style="ellipse;whiteSpace=wrap;html=1;" parent="1" vertex="1">
          <mxGeometry x="260" y="250" width="120" height="80" as="geometry" />
        </mxCell>
        <mxCell id="f0s5E0B-F8WZaxfZbD_Y-5" value="" style="endArrow=none;html=1;rounded=0;" parent="1" source="f0s5E0B-F8WZaxfZbD_Y-2" target="f0s5E0B-F8WZaxfZbD_Y-4" edge="1">
          <mxGeometry width="50" height="50" relative="1" as="geometry">
            <mxPoint x="140" y="280" as="sourcePoint" />
            <mxPoint x="190" y="230" as="targetPoint" />
          </mxGeometry>
        </mxCell>
        <mxCell id="f0s5E0B-F8WZaxfZbD_Y-6" value="View Months" style="ellipse;whiteSpace=wrap;html=1;" parent="1" vertex="1">
          <mxGeometry x="260" y="360" width="120" height="80" as="geometry" />
        </mxCell>
        <mxCell id="f0s5E0B-F8WZaxfZbD_Y-8" value="" style="endArrow=none;html=1;rounded=0;" parent="1" source="f0s5E0B-F8WZaxfZbD_Y-2" target="f0s5E0B-F8WZaxfZbD_Y-6" edge="1">
          <mxGeometry width="50" height="50" relative="1" as="geometry">
            <mxPoint x="130" y="250" as="sourcePoint" />
            <mxPoint x="180" y="200" as="targetPoint" />
          </mxGeometry>
        </mxCell>
        <mxCell id="f0s5E0B-F8WZaxfZbD_Y-9" value="Sign Up" style="ellipse;whiteSpace=wrap;html=1;" parent="1" vertex="1">
          <mxGeometry x="260" y="40" width="120" height="80" as="geometry" />
        </mxCell>
        <mxCell id="f0s5E0B-F8WZaxfZbD_Y-10" value="" style="endArrow=none;html=1;rounded=0;" parent="1" target="f0s5E0B-F8WZaxfZbD_Y-9" edge="1">
          <mxGeometry width="50" height="50" relative="1" as="geometry">
            <mxPoint x="130" y="70" as="sourcePoint" />
            <mxPoint x="170" y="90" as="targetPoint" />
          </mxGeometry>
        </mxCell>
        <mxCell id="f0s5E0B-F8WZaxfZbD_Y-11" value="View Profile" style="ellipse;whiteSpace=wrap;html=1;" parent="1" vertex="1">
          <mxGeometry x="450" y="40" width="120" height="80" as="geometry" />
        </mxCell>
        <mxCell id="f0s5E0B-F8WZaxfZbD_Y-12" value="New User" style="shape=umlActor;verticalLabelPosition=bottom;verticalAlign=top;html=1;outlineConnect=0;" parent="1" vertex="1">
          <mxGeometry x="110" y="40" width="30" height="60" as="geometry" />
        </mxCell>
        <mxCell id="f0s5E0B-F8WZaxfZbD_Y-22" value="" style="endArrow=none;html=1;rounded=0;" parent="1" target="f0s5E0B-F8WZaxfZbD_Y-11" edge="1">
          <mxGeometry width="50" height="50" relative="1" as="geometry">
            <mxPoint x="120" y="190" as="sourcePoint" />
            <mxPoint x="170" y="140" as="targetPoint" />
          </mxGeometry>
        </mxCell>
        <mxCell id="f0s5E0B-F8WZaxfZbD_Y-23" value="View Statistics" style="ellipse;whiteSpace=wrap;html=1;" parent="1" vertex="1">
          <mxGeometry x="450" y="220" width="120" height="80" as="geometry" />
        </mxCell>
        <mxCell id="f0s5E0B-F8WZaxfZbD_Y-24" value="" style="endArrow=none;html=1;rounded=0;" parent="1" target="f0s5E0B-F8WZaxfZbD_Y-23" edge="1">
          <mxGeometry width="50" height="50" relative="1" as="geometry">
            <mxPoint x="130" y="200" as="sourcePoint" />
            <mxPoint x="180" y="150" as="targetPoint" />
          </mxGeometry>
        </mxCell>
        <mxCell id="f0s5E0B-F8WZaxfZbD_Y-27" value="" style="shape=flexArrow;endArrow=classic;html=1;rounded=0;exitX=0;exitY=0.3333333333333333;exitDx=0;exitDy=0;exitPerimeter=0;entryX=0;entryY=0.3333333333333333;entryDx=0;entryDy=0;entryPerimeter=0;" parent="1" source="f0s5E0B-F8WZaxfZbD_Y-12" target="f0s5E0B-F8WZaxfZbD_Y-2" edge="1">
          <mxGeometry width="50" height="50" relative="1" as="geometry">
            <mxPoint y="60" as="sourcePoint" />
            <mxPoint x="20" y="110" as="targetPoint" />
            <Array as="points">
              <mxPoint x="10" y="80" />
            </Array>
          </mxGeometry>
        </mxCell>
        <mxCell id="DoS_W4GEl0eqm4lf0S_Q-1" value="" style="endArrow=none;html=1;rounded=0;" edge="1" parent="1" target="ibvccmpmpEazySmpFsbX-1">
          <mxGeometry width="50" height="50" relative="1" as="geometry">
            <mxPoint x="130" y="200" as="sourcePoint" />
            <mxPoint x="180" y="150" as="targetPoint" />
          </mxGeometry>
        </mxCell>
      </root>
    </mxGraphModel>
  </diagram>
</mxfile>
